Coordinates
version=1
nRows=8
nColumns=36
inDegrees=yes

Units are S.I. units (second, meters, Newtons, ...)
If the header above contains a line with 'inDegrees', this indicates whether rotational values are in degrees (yes) or radians (no).

endheader
time	pelvis_tilt	pelvis_list	pelvis_rotation	pelvis_tx	pelvis_ty	pelvis_tz	hip_flexion_r	hip_adduction_r	hip_rotation_r	knee_angle_r	knee_angle_r_beta	ankle_angle_r	subtalar_angle_r	mtp_angle_r	hip_flexion_l	hip_adduction_l	hip_rotation_l	knee_angle_l	knee_angle_l_beta	ankle_angle_l	subtalar_angle_l	mtp_angle_l	lumbar_extension	lumbar_bending	lumbar_rotation	arm_flex_r	arm_add_r	arm_rot_r	elbow_flex_r	pro_sup_r	arm_flex_l	arm_add_l	arm_rot_l	elbow_flex_l	pro_sup_l
      0.96666670	     -5.66729562	      0.83989828	      8.00598342	     -0.12214069	      1.28574407	     -0.06083099	      1.02101678	     -3.03452156	      9.89664076	      5.28438223	      0.09222987	     19.29095862	    -10.52120287	     -7.49868247	      4.01099345	      1.44236705	      8.28983503	      7.71401132	      0.13463490	     11.44964690	    -12.81889693	     -7.49868247	     -3.83268099	     -4.12595917	     -0.10554169	     -4.51353316	     -4.26903599	     -0.75226271	     25.60238381	     80.35249522	     -0.84099318	     -9.21520689	      8.77800688	     28.32264292	     76.78261848
      0.98333330	     -5.83924938	      0.83071856	      8.12184364	     -0.12216178	      1.28564946	     -0.06115932	      1.56161053	     -2.96525393	      9.88289943	      5.52121494	      0.09636338	     19.28855344	    -10.67245462	     -7.49928009	      4.55960802	      1.42016311	      8.28657756	      8.01262747	      0.13984673	     11.52371467	    -12.87341816	     -7.49928009	     -4.90203989	     -4.18475952	     -0.29499415	     -4.30074533	     -4.20303168	     -2.84965380	     25.77614929	     85.61076337	     -0.84510119	     -9.33428610	      6.22564215	     28.66580649	     83.79525598
      1.00000000	     -6.08563209	      0.76993688	      8.20392913	     -0.12050291	      1.29103024	     -0.06072060	      2.08025093	     -2.85379411	      9.66157609	      5.77242635	      0.10074785	     19.20017188	    -10.69520665	     -7.49928661	      5.10848257	      1.32785789	      8.18307723	      8.21414424	      0.14336386	     11.43031461	    -12.82511527	     -7.49928661	     -5.82758292	     -4.17433445	     -0.26595020	     -4.25970061	     -4.35943684	     -2.95811221	     25.76696060	     85.57167926	     -1.03459907	     -9.71833846	      6.13631878	     28.63600696	     83.77890195
      1.01666670	     -6.23872622	      0.70306848	      8.24641389	     -0.11521641	      1.29041536	     -0.06391746	      2.21579909	     -2.77542751	      9.39490526	      5.94298581	      0.10372467	     19.03387993	    -10.67380053	     -7.49928916	      5.36379866	      1.23538832	      8.02613654	      8.32036232	      0.14521772	     11.29507260	    -12.76622875	     -7.49928916	     -6.53747873	     -4.07606792	     -0.19109767	     -4.67830725	     -4.61447986	     -3.08826373	     25.55872076	     85.55099265	     -1.69737601	    -10.05750736	      6.07370382	     28.48615284	     83.78241817
      1.03333330	     -6.70763671	      0.59923988	      8.25995739	     -0.12025093	      1.28956327	     -0.06097273	      2.87580103	     -2.67230364	      8.78773997	      6.32128938	      0.11032731	     19.27964630	    -10.16634190	     -7.49931376	      6.04152459	      1.15964849	      7.76032065	      8.49856062	      0.14832786	     11.49184132	    -12.48415190	     -7.49931376	     -7.09401654	     -4.03109644	     -0.53155650	     -4.87895331	     -4.60500696	     -4.24146716	     25.20965594	     85.37768323	     -2.94725259	    -10.47283898	      5.48395893	     29.13597649	     83.83833294
      1.05000000	     -6.70277041	      0.55538055	      8.25828048	     -0.11474271	      1.28416496	     -0.05864145	      2.81077047	     -2.52498421	      8.75048379	      6.52212197	      0.11383250	     19.25846185	    -10.44683643	     -7.49936664	      6.09156248	      1.01276522	      7.48121186	      8.72074422	      0.15220570	     11.60417809	    -12.44757079	     -7.49936664	     -8.09109843	     -4.03376466	     -0.62748914	     -5.36952226	     -4.59309526	     -5.11407000	     25.08510009	     82.76338139	     -4.00476615	    -10.81592788	      4.80239259	     29.35016859	     81.43519125
      1.06666670	     -6.96667631	      0.44424130	      8.24095596	     -0.10865772	      1.27778331	     -0.06113593	      3.03257975	     -2.40389398	      8.29671317	      6.85149635	      0.11958117	     19.58801447	    -10.12513014	     -7.49945893	      6.36914367	      0.85643546	      7.21602826	      8.98189796	      0.15676369	     11.94690292	    -12.32768527	     -7.49945893	     -8.37341399	     -3.93236331	     -0.66913244	     -6.07633652	     -4.68816374	     -6.08379033	     24.58070768	     83.28289247	     -5.27798133	    -11.08812314	      4.60309771	     28.80596879	     82.18314597
      1.08333330	     -7.39166432	      0.32169168	      8.20315568	     -0.11470061	      1.27245001	     -0.05897339	      3.64905717	     -2.26942183	      8.01319296	      7.27807078	      0.12702630	     20.09288630	     -9.96581602	     -7.49944476	      6.97053523	      0.72649923	      6.98987747	      9.40006584	      0.16406210	     12.44749222	    -12.38792662	     -7.49944476	     -8.50801532	     -3.88649139	     -0.79598815	     -6.55165064	     -4.75280973	     -6.69115700	     23.88474626	     82.56702235	     -6.33835242	    -11.47417298	      4.29453711	     28.23294171	     81.52303096
